<svg xmlns="http://www.w3.org/2000/svg" width="136.948" height="55.32" viewBox="0 0 136.948 55.32">
  <g id="_3THs-1" data-name="3THs-1" transform="translate(-3.471 -17.581)">
    <path id="Trazado_26" data-name="Trazado 26" d="M7.884,0h7.128V-19.548h7.7V-25.2H.144v5.652h7.74ZM43.776-25.2v9.468h-9.72V-25.2H26.928V0h7.128V-9.828h9.72V0H50.9V-25.2ZM53.64,3.6h6.084L71.6-30.312H65.52ZM78.516.324c6.336,0,9.648-2.808,9.648-6.408,0-7.74-11.484-4.824-11.484-7.524,0-.72.828-1.368,3.132-1.368a11.433,11.433,0,0,1,5.616,1.44L87.48-18.18a17.118,17.118,0,0,0-7.7-1.656c-6.12,0-9.5,2.808-9.5,6.48,0,7.812,11.52,4.824,11.52,7.452,0,.828-.756,1.332-3.06,1.332a13.685,13.685,0,0,1-6.8-1.8l-2.052,4.68A17.905,17.905,0,0,0,78.516.324Z" transform="translate(51.175 47.893)" fill="#fff"/>
    <path id="Trazado_27" data-name="Trazado 27" d="M11.5,0,6.7-6.516,11.16-12.6H9.72L5.94-7.452,2.142-12.6H.612L5.094-6.48.306,0h1.53l4.05-5.544L9.954,0Zm5.526-7.2,3.564-4.482V-12.6h-8.1v1.152h6.444L15.444-7.074v.954h.9c2.34,0,3.4.99,3.4,2.5,0,1.566-1.152,2.538-3.24,2.538A5.52,5.52,0,0,1,12.6-2.538l-.63,1.026A6.552,6.552,0,0,0,16.506.108c3.042,0,4.572-1.62,4.572-3.726C21.078-5.634,19.728-7.056,17.028-7.2Zm23.688-5.4L35.3-3.258,29.826-12.6h-1.1V0h1.278V-10.026L34.956-1.6h.63l4.95-8.478V0h1.278V-12.6ZM47.25-1.152v-4.68h6.516V-6.966H47.25v-4.482h7.308V-12.6h-8.64V0h8.91V-1.152ZM61.434.108c3.222,0,4.7-1.584,4.7-3.438,0-4.59-7.758-2.5-7.758-5.958,0-1.26,1.026-2.286,3.33-2.286A6.487,6.487,0,0,1,65.16-10.53l.45-1.062A7.113,7.113,0,0,0,61.7-12.708c-3.2,0-4.644,1.6-4.644,3.456,0,4.662,7.758,2.538,7.758,5.994,0,1.242-1.026,2.232-3.384,2.232a6.187,6.187,0,0,1-4.158-1.53L56.754-1.53A6.832,6.832,0,0,0,61.434.108Zm8.928-1.26v-4.68h6.516V-6.966H70.362v-4.482H77.67V-12.6H69.03V0h8.91V-1.152ZM84.546.108c3.222,0,4.7-1.584,4.7-3.438,0-4.59-7.758-2.5-7.758-5.958,0-1.26,1.026-2.286,3.33-2.286a6.487,6.487,0,0,1,3.456,1.044l.45-1.062a7.113,7.113,0,0,0-3.906-1.116c-3.2,0-4.644,1.6-4.644,3.456,0,4.662,7.758,2.538,7.758,5.994,0,1.242-1.026,2.232-3.384,2.232a6.187,6.187,0,0,1-4.158-1.53L79.866-1.53A6.832,6.832,0,0,0,84.546.108Z" transform="translate(51.175 70.893)" fill="#fff"/>
    <path id="Trazado_30" data-name="Trazado 30" d="M-15.12-30.24-4.68-41.472V-50.4H-41.112v11.016H-21.24l-9,9.72v9h5.976c5.472,0,7.7,1.872,7.7,4.9,0,3.384-3.168,5.256-7.992,5.256A25.586,25.586,0,0,1-38.52-14.688L-43.7-3.96C-38.52-.72-31.1,1.008-24.12,1.008-8.928,1.008-2.16-7.2-2.16-15.768-2.16-22.968-6.624-28.44-15.12-30.24Z" transform="translate(47.175 71.893)" fill="#fff"/>
  </g>
</svg>
