<svg xmlns="http://www.w3.org/2000/svg" width="41.528" height="41.527" viewBox="0 0 41.528 41.527">
  <g id="Grupo_100" data-name="Grupo 100" transform="translate(-45.736 -18.236)">
    <g id="Grupo_75" data-name="Grupo 75" transform="translate(45.736 18.236)">
      <g id="Grupo_66" data-name="Grupo 66" transform="translate(0.31 0)">
        <rect id="Rect치ngulo_69" data-name="Rect치ngulo 69" width="24.516" height="24.826" transform="translate(1.552 1.241)" fill="#fff"/>
        <circle id="Elipse_5" data-name="Elipse 5" cx="13.655" cy="13.655" r="13.655" transform="translate(0)" fill="#fff"/>
      </g>
      <g id="cooler" transform="translate(0 0)">
        <g id="Grupo_53" data-name="Grupo 53" transform="translate(23.648 2.884)">
          <g id="Grupo_52" data-name="Grupo 52">
            <path id="Trazado_7" data-name="Trazado 7" d="M437.92,53.336a.577.577,0,1,0,.576.577A.576.576,0,0,0,437.92,53.336Z" transform="translate(-437.344 -53.336)" fill="#47d9bf"/>
          </g>
        </g>
        <g id="Grupo_55" data-name="Grupo 55" transform="translate(2.884 2.884)">
          <g id="Grupo_54" data-name="Grupo 54">
            <path id="Trazado_8" data-name="Trazado 8" d="M53.913,53.336a.577.577,0,1,0,.577.577A.577.577,0,0,0,53.913,53.336Z" transform="translate(-53.336 -53.336)" fill="#47d9bf"/>
          </g>
        </g>
        <g id="Grupo_57" data-name="Grupo 57" transform="translate(2.884 23.648)">
          <g id="Grupo_56" data-name="Grupo 56">
            <path id="Trazado_9" data-name="Trazado 9" d="M53.913,437.344a.577.577,0,1,0,.577.576A.577.577,0,0,0,53.913,437.344Z" transform="translate(-53.336 -437.344)" fill="#47d9bf"/>
          </g>
        </g>
        <g id="Grupo_59" data-name="Grupo 59" transform="translate(23.648 23.648)">
          <g id="Grupo_58" data-name="Grupo 58">
            <path id="Trazado_10" data-name="Trazado 10" d="M437.92,437.344a.577.577,0,1,0,.576.576A.576.576,0,0,0,437.92,437.344Z" transform="translate(-437.344 -437.344)" fill="#47d9bf"/>
          </g>
        </g>
        <g id="Grupo_61" data-name="Grupo 61">
          <g id="Grupo_60" data-name="Grupo 60">
            <path id="Trazado_11" data-name="Trazado 11" d="M27.685,13.842A13.783,13.783,0,0,0,26.531,8.3V1.154H19.383a13.882,13.882,0,0,0-11.081,0H1.154V8.3a13.882,13.882,0,0,0,0,11.081v7.148H8.3a13.888,13.888,0,0,0,11.082,0h7.148V19.383h0A13.782,13.782,0,0,0,27.685,13.842ZM25.378,2.307V6.189A13.918,13.918,0,0,0,21.5,2.307h3.882Zm-23.071,0H6.189A13.918,13.918,0,0,0,2.307,6.189Zm0,23.071V21.5a13.922,13.922,0,0,0,3.881,3.881Zm23.071,0H21.5A13.927,13.927,0,0,0,25.378,21.5Zm-2.563-2.563a12.642,12.642,0,1,1,2.72-4.033A12.659,12.659,0,0,1,22.815,22.815Z" fill="#47d9bf"/>
          </g>
        </g>
        <g id="Grupo_63" data-name="Grupo 63" transform="translate(2.306 2.307)">
          <g id="Grupo_62" data-name="Grupo 62">
            <path id="Trazado_12" data-name="Trazado 12" d="M65.659,53.016a11.8,11.8,0,0,0-.226-1.377,32.963,32.963,0,0,1-5.715,1.818,28.044,28.044,0,0,0,4.7-4.594,11.574,11.574,0,0,0-6.822-5.687,32.984,32.984,0,0,1-1.283,5.86,28.1,28.1,0,0,0-1.629-6.362q-.243-.01-.488-.01a11.547,11.547,0,0,0-7.848,3.075,32.98,32.98,0,0,1,4.431,4.04,28.084,28.084,0,0,0-6.323-1.77,11.485,11.485,0,0,0-1.742,7.375,11.682,11.682,0,0,0,.226,1.376,33.009,33.009,0,0,1,5.714-1.817,28.062,28.062,0,0,0-4.7,4.594,11.577,11.577,0,0,0,6.823,5.688,32.989,32.989,0,0,1,1.283-5.86,28.067,28.067,0,0,0,1.629,6.362q.243.01.488.01a11.774,11.774,0,0,0,1.19-.061,11.481,11.481,0,0,0,6.658-3.014,33.065,33.065,0,0,1-4.43-4.039,28.108,28.108,0,0,0,6.323,1.769A11.484,11.484,0,0,0,65.659,53.016ZM50.724,54.2a3.461,3.461,0,1,1,3.461,3.461A3.464,3.464,0,0,1,50.724,54.2Z" transform="translate(-42.648 -42.663)" fill="#47d9bf"/>
          </g>
        </g>
        <g id="Grupo_65" data-name="Grupo 65" transform="translate(13.266 13.266)">
          <g id="Grupo_64" data-name="Grupo 64">
            <path id="Trazado_13" data-name="Trazado 13" d="M245.913,245.336a.577.577,0,1,0,.577.577A.577.577,0,0,0,245.913,245.336Z" transform="translate(-245.336 -245.336)" fill="#47d9bf"/>
          </g>
        </g>
      </g>
    </g>
    <g id="Grupo_77" data-name="Grupo 77" transform="translate(59.579 32.079)">
      <g id="Grupo_66-2" data-name="Grupo 66" transform="translate(0.31)">
        <rect id="Rect치ngulo_69-2" data-name="Rect치ngulo 69" width="24.516" height="24.826" transform="translate(1.552 1.241)" fill="#fff"/>
        <circle id="Elipse_5-2" data-name="Elipse 5" cx="13.655" cy="13.655" r="13.655" transform="translate(0)" fill="#fff"/>
      </g>
      <g id="cooler-2" data-name="cooler">
        <g id="Grupo_53-2" data-name="Grupo 53" transform="translate(23.648 2.884)">
          <g id="Grupo_52-2" data-name="Grupo 52">
            <path id="Trazado_7-2" data-name="Trazado 7" d="M437.92,53.336a.577.577,0,1,0,.576.577A.576.576,0,0,0,437.92,53.336Z" transform="translate(-437.344 -53.336)" fill="#47d9bf"/>
          </g>
        </g>
        <g id="Grupo_55-2" data-name="Grupo 55" transform="translate(2.884 2.884)">
          <g id="Grupo_54-2" data-name="Grupo 54">
            <path id="Trazado_8-2" data-name="Trazado 8" d="M53.913,53.336a.577.577,0,1,0,.577.577A.577.577,0,0,0,53.913,53.336Z" transform="translate(-53.336 -53.336)" fill="#47d9bf"/>
          </g>
        </g>
        <g id="Grupo_57-2" data-name="Grupo 57" transform="translate(2.884 23.648)">
          <g id="Grupo_56-2" data-name="Grupo 56">
            <path id="Trazado_9-2" data-name="Trazado 9" d="M53.913,437.344a.577.577,0,1,0,.577.576A.577.577,0,0,0,53.913,437.344Z" transform="translate(-53.336 -437.344)" fill="#47d9bf"/>
          </g>
        </g>
        <g id="Grupo_59-2" data-name="Grupo 59" transform="translate(23.648 23.648)">
          <g id="Grupo_58-2" data-name="Grupo 58">
            <path id="Trazado_10-2" data-name="Trazado 10" d="M437.92,437.344a.577.577,0,1,0,.576.576A.576.576,0,0,0,437.92,437.344Z" transform="translate(-437.344 -437.344)" fill="#47d9bf"/>
          </g>
        </g>
        <g id="Grupo_61-2" data-name="Grupo 61">
          <g id="Grupo_60-2" data-name="Grupo 60">
            <path id="Trazado_11-2" data-name="Trazado 11" d="M27.685,13.842A13.783,13.783,0,0,0,26.531,8.3V1.154H19.383a13.882,13.882,0,0,0-11.081,0H1.154V8.3a13.882,13.882,0,0,0,0,11.081v7.148H8.3a13.888,13.888,0,0,0,11.082,0h7.148V19.383h0A13.782,13.782,0,0,0,27.685,13.842ZM25.378,2.307V6.189A13.918,13.918,0,0,0,21.5,2.307h3.882Zm-23.071,0H6.189A13.918,13.918,0,0,0,2.307,6.189Zm0,23.071V21.5a13.922,13.922,0,0,0,3.881,3.881Zm23.071,0H21.5A13.927,13.927,0,0,0,25.378,21.5Zm-2.563-2.563a12.642,12.642,0,1,1,2.72-4.033A12.659,12.659,0,0,1,22.815,22.815Z" fill="#47d9bf"/>
          </g>
        </g>
        <g id="Grupo_63-2" data-name="Grupo 63" transform="translate(2.306 2.307)">
          <g id="Grupo_62-2" data-name="Grupo 62">
            <path id="Trazado_12-2" data-name="Trazado 12" d="M65.659,53.016a11.8,11.8,0,0,0-.226-1.377,32.963,32.963,0,0,1-5.715,1.818,28.044,28.044,0,0,0,4.7-4.594,11.574,11.574,0,0,0-6.822-5.687,32.984,32.984,0,0,1-1.283,5.86,28.1,28.1,0,0,0-1.629-6.362q-.243-.01-.488-.01a11.547,11.547,0,0,0-7.848,3.075,32.98,32.98,0,0,1,4.431,4.04,28.084,28.084,0,0,0-6.323-1.77,11.485,11.485,0,0,0-1.742,7.375,11.682,11.682,0,0,0,.226,1.376,33.009,33.009,0,0,1,5.714-1.817,28.062,28.062,0,0,0-4.7,4.594,11.577,11.577,0,0,0,6.823,5.688,32.989,32.989,0,0,1,1.283-5.86,28.067,28.067,0,0,0,1.629,6.362q.243.01.488.01a11.774,11.774,0,0,0,1.19-.061,11.481,11.481,0,0,0,6.658-3.014,33.065,33.065,0,0,1-4.43-4.039,28.108,28.108,0,0,0,6.323,1.769A11.484,11.484,0,0,0,65.659,53.016ZM50.724,54.2a3.461,3.461,0,1,1,3.461,3.461A3.464,3.464,0,0,1,50.724,54.2Z" transform="translate(-42.648 -42.663)" fill="#47d9bf"/>
          </g>
        </g>
        <g id="Grupo_65-2" data-name="Grupo 65" transform="translate(13.266 13.266)">
          <g id="Grupo_64-2" data-name="Grupo 64">
            <path id="Trazado_13-2" data-name="Trazado 13" d="M245.913,245.336a.577.577,0,1,0,.577.577A.577.577,0,0,0,245.913,245.336Z" transform="translate(-245.336 -245.336)" fill="#47d9bf"/>
          </g>
        </g>
      </g>
    </g>
  </g>
</svg>
