<svg xmlns="http://www.w3.org/2000/svg" xmlns:xlink="http://www.w3.org/1999/xlink" width="235" height="88" viewBox="0 0 235 88">
  <defs>
    <filter id="Rect치ngulo_75" x="0" y="0" width="235" height="88" filterUnits="userSpaceOnUse">
      <feOffset dy="3" input="SourceAlpha"/>
      <feGaussianBlur stdDeviation="3" result="blur"/>
      <feFlood flood-color="#fff" flood-opacity="0.161"/>
      <feComposite operator="in" in2="blur"/>
      <feComposite in="SourceGraphic"/>
    </filter>
  </defs>
  <g id="AppleStore-Bt" transform="translate(9 6)">
    <g transform="matrix(1, 0, 0, 1, -9, -6)" filter="url(#Rect치ngulo_75)">
      <rect id="Rect치ngulo_75-2" data-name="Rect치ngulo 75" width="217" height="70" rx="35" transform="translate(9 6)" fill="#212121"/>
    </g>
    <g id="Elipse_8" data-name="Elipse 8" transform="translate(13 8)" fill="none" stroke="#fff" stroke-width="1">
      <circle cx="27" cy="27" r="27" stroke="none"/>
      <circle cx="27" cy="27" r="26.5" fill="none"/>
    </g>
    <text id="Disponible_en" data-name="Disponible en" transform="translate(75 27)" fill="#fff" font-size="9" font-family="Montserrat-Light, Montserrat" font-weight="300"><tspan x="0" y="0">Disponible en</tspan></text>
    <text id="APPLE_STORE" data-name="APPLE STORE" transform="translate(74 45)" fill="#fff" font-size="16" font-family="Montserrat-SemiBold, Montserrat" font-weight="600" letter-spacing="-0.02em"><tspan x="0" y="0">APPLE STORE</tspan></text>
    <g id="apple" transform="translate(28.076 18.433)">
      <g id="Grupo_85" data-name="Grupo 85" transform="translate(11.618)">
        <g id="Grupo_84" data-name="Grupo 84">
          <path id="Trazado_22" data-name="Trazado 22" d="M253.3,0A6.641,6.641,0,0,0,249,2.328a5.768,5.768,0,0,0-1.408,4.482,5.6,5.6,0,0,0,4.339-2.216A6.227,6.227,0,0,0,253.3,0Z" transform="translate(-247.522)" fill="#fff"/>
        </g>
      </g>
      <g id="Grupo_87" data-name="Grupo 87" transform="translate(0 6.624)">
        <g id="Grupo_86" data-name="Grupo 86">
          <path id="Trazado_23" data-name="Trazado 23" d="M60.69,122.711a7.164,7.164,0,0,0-5.407-2.871c-2.538,0-3.612,1.215-5.375,1.215-1.818,0-3.2-1.212-5.395-1.212a7.34,7.34,0,0,0-5.908,3.571c-2.046,3.173-1.7,9.139,1.62,14.221,1.187,1.818,2.772,3.863,4.845,3.881,1.845.018,2.365-1.183,4.864-1.2s2.973,1.212,4.814,1.192c2.075-.016,3.746-2.282,4.933-4.1a20.391,20.391,0,0,0,1.827-3.431A6.239,6.239,0,0,1,60.69,122.711Z" transform="translate(-37.336 -119.84)" fill="#fff"/>
        </g>
      </g>
    </g>
  </g>
</svg>
