<svg xmlns="http://www.w3.org/2000/svg" width="54.888" height="76.395" viewBox="0 0 54.888 76.395">
  <g id="Logo" transform="translate(-5031 340.824)">
    <path id="Rectángulo_50" data-name="Rectángulo 50" d="M3.293,3.293V29.168H15.185V14.113A10.833,10.833,0,0,0,4.365,3.293H3.293M0,0H4.365A14.113,14.113,0,0,1,18.478,14.113V29.638a2.823,2.823,0,0,1-2.823,2.823H0Z" transform="translate(5039.653 -327.758) rotate(-45)" fill="#91d8f7"/>
    <path id="Rectángulo_51" data-name="Rectángulo 51" d="M3.293,3.293V29.168H15.185V14.113A10.833,10.833,0,0,0,4.365,3.293H3.293M0,0H4.365A14.113,14.113,0,0,1,18.478,14.113V29.638a2.823,2.823,0,0,1-2.823,2.823H0Z" transform="translate(5076.924 -277.495) rotate(135)" fill="#91d8f7"/>
    <path id="Rectángulo_49" data-name="Rectángulo 49" d="M12.232,3.457A10.838,10.838,0,0,0,3.293,14.113V58.642a10.838,10.838,0,0,0,8.938-10.656V3.457M14.113,0h1.411V47.986A14.113,14.113,0,0,1,1.411,62.1H0V14.113A14.113,14.113,0,0,1,14.113,0Z" transform="translate(5031 -319.109) rotate(-45)" fill="#0098da"/>
  </g>
</svg>
