<svg id="account_circle_black_36dp" xmlns="http://www.w3.org/2000/svg" width="30" height="30" viewBox="0 0 30 30">
  <path id="Trazado_31" data-name="Trazado 31" d="M0,0H30V30H0Z" fill="none"/>
  <path id="Trazado_32" data-name="Trazado 32" d="M15,2A13,13,0,1,0,28,15,13,13,0,0,0,15,2ZM8.591,23.164C9.15,21.994,12.556,20.85,15,20.85s5.863,1.144,6.409,2.314a10.3,10.3,0,0,1-12.818,0Zm14.677-1.885C21.409,19.017,16.9,18.25,15,18.25s-6.409.767-8.268,3.029a10.4,10.4,0,1,1,16.536,0ZM15,7.2a4.55,4.55,0,1,0,4.55,4.55A4.538,4.538,0,0,0,15,7.2Zm0,6.5a1.95,1.95,0,1,1,1.95-1.95A1.947,1.947,0,0,1,15,13.7Z" transform="translate(0 0)" fill="#374140"/>
</svg>
